<?xml version="1.0" encoding="UTF-8"?>
<svg id="Layer_1" data-name="Layer 1" xmlns="http://www.w3.org/2000/svg" viewBox="0 0 1824.63 2071.04">
  <defs>
    <style>
      .cls-1 {
        fill: #231f20;
        stroke-width: 0px;
      }
    </style>
  </defs>
  <path class="cls-1" d="M912.32,1726.64c-93.29,0-183.8-18.28-269.02-54.32-82.3-34.81-156.21-84.64-219.67-148.1s-113.29-137.37-148.1-219.67c-36.04-85.22-54.32-175.73-54.32-269.02s18.28-183.8,54.32-269.02c34.81-82.3,84.64-156.21,148.1-219.67s137.37-113.29,219.67-148.1c85.22-36.04,175.73-54.32,269.02-54.32s183.8,18.28,269.02,54.32c82.3,34.81,156.21,84.64,219.67,148.1s113.29,137.37,148.1,219.67c36.04,85.22,54.32,175.73,54.32,269.02s-18.28,183.8-54.32,269.02c-34.81,82.3-84.64,156.21-148.1,219.67s-137.37,113.29-219.67,148.1c-85.22,36.04-175.73,54.32-269.02,54.32ZM912.32,391.4c-355.17,0-644.12,288.95-644.12,644.12s288.95,644.12,644.12,644.12,644.12-288.95,644.12-644.12-288.95-644.12-644.12-644.12Z"/>
  <path class="cls-1" d="M954.57,699.05l-15.32,72.96h-286.75l65.49,127.14h194.94l-15.32,72.96h-142.04l174.66,339.07,128.62-248.79-61.52,22.61,248.23-385.95-129.7,295.55,74.2-26.56-259.6,502.91c-76.22-147.97-325.54-631.96-397.62-771.9h421.72Z"/>
</svg>